<svg width="604" height="294" viewBox="0 0 604 294" fill="none" xmlns="http://www.w3.org/2000/svg">
<path d="M271.308 0V71.7499C243.246 71.7499 224.538 78.1666 215.185 91C207 102.667 202.908 125.417 202.908 159.25H271.308V294H131V180.25C131 118.417 141.523 72.9166 162.569 43.75C183.615 14.5833 219.862 0 271.308 0ZM473 0V71.7499C444.938 71.7499 426.231 78.1666 416.877 91C408.692 102.667 404.6 125.417 404.6 159.25H473V294H332.692V180.25C332.692 118.417 343.215 72.9166 364.262 43.75C385.308 14.5833 421.554 0 473 0Z" fill="#c084fc"/>
</svg>
